# xmcd
#
# Track frame offsets:
# 182
# 4632
# 10045
# 15707
# 21282
# 25532
# 30345
# 34245
# 40957
# 44045
# 45945
# 53195
# 57307
# 65045
# 68595
# 76207
# 83857
# 87120
# 91970
# 95095
# 99120
# 103957
# 109207
# 120232
# 134295
# 140645
# 143520
# 147207
# 153482
# 157632
# 162682
# 164757
#
# Disc length: 2241 seconds
#
#
# Revision: 0
# Processed by: cddbd v1.5.1PL0 Copyright (c) Steve Scherf et al.
# Submitted via: FreeRIP 2.92 
#
DISCID=9b08bf20
DTITLE=Steglitzer Kinderchor and Singkreis Dahlem - Die schönsten Kinderlieder
DYEAR=1900
DGENRE=Ethnic
TTITLE0=Es tanzt ein Bi-Ba-Butzemann
TTITLE1=Fiedelhänschen geig' einmal
TTITLE2=Alle Vöglein sind schon da
TTITLE3=Kuckuck
TTITLE4=Frau Schwalbe ist 'ne Schwätzerin
TTITLE5=Ein Männlein steht im Walde
TTITLE6=Summ, summ, summ, Bienchen summ herum
TTITLE7=Ward ein Blümchen mir geschenkt
TTITLE8=Es regnet
TTITLE9=Alle meine Entchen
TTITLE10=Wule, wule Gänschen
TTITLE11=Die Katze ist zu Hause
TTITLE12=Vogel-Hochzeit
TTITLE13=Fuchs, du hast die Gans gestohlen
TTITLE14=Die Spatzen schrein' in ihrem Nest
TTITLE15=Tick, tack Ührchen
TTITLE16=Der Michel, der Michel
TTITLE17=Jetzt tanzt Hannemann
TTITLE18=Spannenlanger Hansel
TTITLE19=Hopp, hopp, hopp, Pferdchen lauf Galopp
TTITLE20=Wo tut's weh?
TTITLE21=Ich hab mir mein Kindlein fein schlafen gelegt
TTITLE22=Kindlein mein, schlaf nun ein
TTITLE23=Die Blümelein sie schlafen
TTITLE24=Hänschen klein
TTITLE25=Kommt ein Vogel geflogen
TTITLE26=In einem kleinen Apfel
TTITLE27=Schneeflöckchen, weiss Röckchen
TTITLE28=Wenn ich ein Vöglein wär
TTITLE29=Eine kleine Geige möcht' ich haben
TTITLE30=Laterne, Sonne Mond und Sterne
TTITLE31=Ich geh mit meiner Laterne
EXTD=
EXTT0=
EXTT1=
EXTT2=
EXTT3=
EXTT4=
EXTT5=
EXTT6=
EXTT7=
EXTT8=
EXTT9=
EXTT10=
EXTT11=
EXTT12=
EXTT13=
EXTT14=
EXTT15=
EXTT16=
EXTT17=
EXTT18=
EXTT19=
EXTT20=
EXTT21=
EXTT22=
EXTT23=
EXTT24=
EXTT25=
EXTT26=
EXTT27=
EXTT28=
EXTT29=
EXTT30=
EXTT31=
PLAYORDER=
